<?xml version="1.0" encoding="UTF-8"?>
<svg version="1.1" xmlns="http://www.w3.org/2000/svg" width="100" height="100">
<path d="M0 0 C1.09496292 -0.0127597 2.18992584 -0.02551941 3.31806946 -0.03866577 C4.49209824 -0.04089142 5.66612701 -0.04311707 6.87573242 -0.04541016 C8.09266281 -0.05206696 9.3095932 -0.05872375 10.56340027 -0.06558228 C13.13632701 -0.07570019 15.70927995 -0.08039956 18.28222656 -0.08007812 C22.20641656 -0.08444508 26.12947615 -0.12075941 30.0534668 -0.15869141 C32.55671817 -0.16456102 35.05997487 -0.16852945 37.56323242 -0.17041016 C38.73118851 -0.18478119 39.89914459 -0.19915222 41.10249329 -0.21395874 C49.05541193 -0.16964915 54.51239366 0.86740421 60.66088867 6.25537109 C61.1997168 6.90634766 61.73854492 7.55732422 62.29370117 8.22802734 C62.84799805 8.87642578 63.40229492 9.52482422 63.97338867 10.19287109 C66.80066214 14.29623826 67.66994395 17.92697939 67.70922852 22.87182617 C67.72198822 23.96678909 67.73474792 25.06175201 67.74789429 26.18989563 C67.75011993 27.36392441 67.75234558 28.53795319 67.75463867 29.74755859 C67.76462387 31.57295418 67.76462387 31.57295418 67.77481079 33.43522644 C67.7849287 36.00815318 67.78962808 38.58110612 67.78930664 41.15405273 C67.79367359 45.07824273 67.82998793 49.00130232 67.86791992 52.92529297 C67.87378954 55.42854434 67.87775796 57.93180104 67.87963867 60.43505859 C67.8940097 61.60301468 67.90838074 62.77097076 67.92318726 63.97431946 C67.87887767 71.9272381 66.8418243 77.38421983 61.45385742 83.53271484 C60.80288086 84.07154297 60.1519043 84.61037109 59.48120117 85.16552734 C58.83280273 85.71982422 58.1844043 86.27412109 57.51635742 86.84521484 C53.41299026 89.67248831 49.78224913 90.54177013 44.83740234 90.58105469 C43.19495796 90.60019424 43.19495796 90.60019424 41.51933289 90.61972046 C40.34530411 90.62194611 39.17127533 90.62417175 37.96166992 90.62646484 C36.74473953 90.63312164 35.52780914 90.63977844 34.27400208 90.64663696 C31.70107533 90.65675487 29.1281224 90.66145425 26.55517578 90.66113281 C22.63098578 90.66549976 18.70792619 90.7018141 14.78393555 90.73974609 C12.28068417 90.74561571 9.77742747 90.74958413 7.27416992 90.75146484 C6.10621384 90.76583588 4.93825775 90.78020691 3.73490906 90.79501343 C-4.21800958 90.75070384 -9.67499132 89.71365048 -15.82348633 84.32568359 C-16.36231445 83.67470703 -16.90114258 83.02373047 -17.45629883 82.35302734 C-18.0105957 81.70462891 -18.56489258 81.05623047 -19.13598633 80.38818359 C-21.96325979 76.28481643 -22.83254161 72.6540753 -22.87182617 67.70922852 C-22.88458588 66.61426559 -22.89734558 65.51930267 -22.91049194 64.39115906 C-22.91271759 63.21713028 -22.91494324 62.0431015 -22.91723633 60.83349609 C-22.92389313 59.6165657 -22.93054993 58.39963531 -22.93740845 57.14582825 C-22.94752636 54.57290151 -22.95222573 51.99994857 -22.9519043 49.42700195 C-22.95627125 45.50281196 -22.99258559 41.57975236 -23.03051758 37.65576172 C-23.0363872 35.15251034 -23.04035562 32.64925364 -23.04223633 30.14599609 C-23.05660736 28.97804001 -23.07097839 27.81008392 -23.08578491 26.60673523 C-23.04147532 18.65381659 -22.00442196 13.19683485 -16.61645508 7.04833984 C-15.96547852 6.50951172 -15.31450195 5.97068359 -14.64379883 5.41552734 C-13.99540039 4.86123047 -13.34700195 4.30693359 -12.67895508 3.73583984 C-8.57558791 0.90856638 -4.94484679 0.03928456 0 0 Z " fill="#2C3249" transform="translate(27.581298828125,4.70947265625)"/>
<path d="M0 0 C1.09496292 -0.0127597 2.18992584 -0.02551941 3.31806946 -0.03866577 C4.49209824 -0.04089142 5.66612701 -0.04311707 6.87573242 -0.04541016 C8.09266281 -0.05206696 9.3095932 -0.05872375 10.56340027 -0.06558228 C13.13632701 -0.07570019 15.70927995 -0.08039956 18.28222656 -0.08007812 C22.20641656 -0.08444508 26.12947615 -0.12075941 30.0534668 -0.15869141 C32.55671817 -0.16456102 35.05997487 -0.16852945 37.56323242 -0.17041016 C38.73118851 -0.18478119 39.89914459 -0.19915222 41.10249329 -0.21395874 C49.17317895 -0.16899301 54.32847601 1.05101457 60.76635742 6.14990234 C65.31535456 11.1651976 65.31535456 11.1651976 65.62963867 14.58740234 C65.35620117 16.79052734 65.35620117 16.79052734 64.41870117 20.29052734 C63.75870117 20.29052734 63.09870117 20.29052734 62.41870117 20.29052734 C62.41870117 21.94052734 62.41870117 23.59052734 62.41870117 25.29052734 C61.75870117 25.29052734 61.09870117 25.29052734 60.41870117 25.29052734 C60.39807617 26.13615234 60.37745117 26.98177734 60.35620117 27.85302734 C59.19915709 32.09552231 57.29935073 33.78096042 54.11010742 36.67724609 C52.19995357 38.38114259 52.19995357 38.38114259 50.41870117 41.29052734 C49.75870117 41.29052734 49.09870117 41.29052734 48.41870117 41.29052734 C50.29370117 35.54052734 50.29370117 35.54052734 51.41870117 33.29052734 C51.74870117 30.32052734 52.07870117 27.35052734 52.41870117 24.29052734 C42.84870117 24.29052734 33.27870117 24.29052734 23.41870117 24.29052734 C23.41870117 26.27052734 23.41870117 28.25052734 23.41870117 30.29052734 C19.41870117 30.29052734 19.41870117 30.29052734 17.29370117 28.35302734 C16.36557617 27.33208984 16.36557617 27.33208984 15.41870117 26.29052734 C12.61763105 24.88999228 10.22978436 25.08297695 7.10620117 25.04052734 C5.97569336 25.01474609 4.84518555 24.98896484 3.68041992 24.96240234 C0.0424621 25.32837654 -1.74951881 25.99789405 -4.58129883 28.29052734 C-5.80301599 30.5190998 -5.80301599 30.5190998 -6.39379883 32.97802734 C-6.7437793 34.19039062 -6.7437793 34.19039062 -7.10083008 35.42724609 C-7.25938477 36.04212891 -7.41793945 36.65701172 -7.58129883 37.29052734 C-5.27129883 37.29052734 -2.96129883 37.29052734 -0.58129883 37.29052734 C-0.31317383 36.50677734 -0.04504883 35.72302734 0.23120117 34.91552734 C1.41870117 32.29052734 1.41870117 32.29052734 4.41870117 30.29052734 C7.98120117 30.47802734 7.98120117 30.47802734 11.41870117 31.29052734 C12.07870117 32.28052734 12.73870117 33.27052734 13.41870117 34.29052734 C12.42870117 34.95052734 11.43870117 35.61052734 10.41870117 36.29052734 C10.33491211 37.49708984 10.25112305 38.70365234 10.16479492 39.94677734 C9.66338347 45.47855858 6.40406672 48.16702815 2.48120117 51.79052734 C1.83473633 52.42216797 1.18827148 53.05380859 0.5222168 53.70458984 C-4.257283 58.29052734 -4.257283 58.29052734 -6.58129883 58.29052734 C-6.91129883 60.93052734 -7.24129883 63.57052734 -7.58129883 66.29052734 C-1.97129883 66.29052734 3.63870117 66.29052734 9.41870117 66.29052734 C9.08870117 67.94052734 8.75870117 69.59052734 8.41870117 71.29052734 C7.74291016 71.28005371 7.06711914 71.26958008 6.37084961 71.25878906 C3.30350475 71.21716758 0.23621939 71.19118162 -2.83129883 71.16552734 C-4.42651367 71.14039062 -4.42651367 71.14039062 -6.05395508 71.11474609 C-7.07875977 71.10830078 -8.10356445 71.10185547 -9.15942383 71.09521484 C-10.10205078 71.08474121 -11.04467773 71.07426758 -12.01586914 71.06347656 C-14.7177793 71.30260641 -16.20446274 72.0620298 -18.58129883 73.29052734 C-19.90129883 73.29052734 -21.22129883 73.29052734 -22.58129883 73.29052734 C-22.68299074 65.46186457 -22.75288733 57.63337312 -22.80102539 49.80419922 C-22.81883532 47.14242487 -22.84836168 44.48151706 -22.88305664 41.81982422 C-22.93175431 37.98703154 -22.95430999 34.15482372 -22.97192383 30.32177734 C-22.99256897 29.13813599 -23.01321411 27.95449463 -23.03448486 26.73498535 C-23.03664925 18.7074074 -22.05580769 13.25547383 -16.61645508 7.04833984 C-15.96547852 6.50951172 -15.31450195 5.97068359 -14.64379883 5.41552734 C-13.99540039 4.86123047 -13.34700195 4.30693359 -12.67895508 3.73583984 C-8.57558791 0.90856638 -4.94484679 0.03928456 0 0 Z " fill="#2D2C46" transform="translate(27.581298828125,4.70947265625)"/>
<path d="M0 0 C4.50065073 -0.10830443 8.99867357 -0.18748158 13.5 -0.25 C15.40265625 -0.30027344 15.40265625 -0.30027344 17.34375 -0.3515625 C26.07082766 -0.44246956 31.518828 0.45085213 38.34765625 5.859375 C42.89665339 10.87467025 42.89665339 10.87467025 43.2109375 14.296875 C42.9375 16.5 42.9375 16.5 42 20 C41.34 20 40.68 20 40 20 C40 21.65 40 23.3 40 25 C39.34 25 38.68 25 38 25 C37.979375 25.845625 37.95875 26.69125 37.9375 27.5625 C36.78045592 31.80499497 34.88064955 33.49043308 31.69140625 36.38671875 C29.78125239 38.09061525 29.78125239 38.09061525 28 41 C27.34 41 26.68 41 26 41 C27.875 35.25 27.875 35.25 29 33 C29.33 30.03 29.66 27.06 30 24 C20.43 24 10.86 24 1 24 C1 25.98 1 27.96 1 30 C-0.32 30 -1.64 30 -3 30 C-5.25 27.5 -5.25 27.5 -7 25 C-6.34 25 -5.68 25 -5 25 C-5 24.34 -5 23.68 -5 23 C-4.21625 22.2575 -3.4325 21.515 -2.625 20.75 C0.14152723 17.85173338 1.02011258 15.830469 2 12 C1.67 12 1.34 12 1 12 C0.67 8.04 0.34 4.08 0 0 Z " fill="#232339" transform="translate(50,5)"/>
<path d="M0 0 C3.24624919 1.24086699 5.40942268 2.81884535 7 6 C7.66 6 8.32 6 9 6 C9.33 4.02 9.66 2.04 10 0 C19.57 0 29.14 0 39 0 C39 7.49414623 38.90328386 10.50898537 35.5625 16.5 C35.20994141 17.16708984 34.85738281 17.83417969 34.49414062 18.52148438 C33.74116004 19.94172972 32.9800347 21.35768249 32.21142578 22.76953125 C30.94200698 25.10677634 29.70072256 27.45736156 28.46484375 29.8125 C26.32647266 33.88399207 24.168343 37.9443955 22 42 C19.36 42 16.72 42 14 42 C14.63920943 39.99105606 15.31039038 37.99220557 16 36 C16.3403125 34.9171875 16.3403125 34.9171875 16.6875 33.8125 C18.80152358 30.89313411 21.66270634 30.23603469 25 29 C25.01417969 28.24976562 25.02835938 27.49953125 25.04296875 26.7265625 C25.40707446 18.91305074 27.11124244 13.7803978 31 7 C24.565 7.495 24.565 7.495 18 8 C20.64 8.99 23.28 9.98 26 11 C25.67 16.61 25.34 22.22 25 28 C14.25 33 14.25 33 12 33 C12 28.05 12 23.1 12 18 C14.97 17.01 17.94 16.02 21 15 C19.55625 14.525625 18.1125 14.05125 16.625 13.5625 C14.32269949 12.80602983 12.16782371 12.08391186 10 11 C10 11.66 10 12.32 10 13 C12.475 13.495 12.475 13.495 15 14 C15 14.66 15 15.32 15 16 C10.99941691 17.10608581 8.65995116 16.9000109 4.8125 15.375 C3.52279297 14.89160156 3.52279297 14.89160156 2.20703125 14.3984375 C-0.56519107 12.64187893 -1.08132167 11.08963328 -2 8 C-5.30567489 7.14612895 -5.30567489 7.14612895 -9 7 C-11.41281883 8.84136174 -12.65150913 10.30301826 -14 13 C-16.31 13 -18.62 13 -21 13 C-20.74385063 8.64546078 -20.42722153 6.50390232 -17.5625 3.125 C-12.31492811 -1.22664499 -6.59023146 -0.59983903 0 0 Z " fill="#FDC065" transform="translate(41,29)"/>
<path d="M0 0 C4.95 0 9.9 0 15 0 C13 6 13 6 11.875 8.00390625 C10.68811389 10.71149019 10.94066989 12.99695147 11 15.9375 C10.64526766 21.43250471 10.64526766 21.43250471 7.92578125 23.82421875 C4.1960362 25.68072862 0.51886386 26.86101861 -3.5 27.9375 C-4.325 28.288125 -5.15 28.63875 -6 29 C-6.66 30.98 -7.32 32.96 -8 35 C-17.57 35 -27.14 35 -37 35 C-37.33 33.35 -37.66 31.7 -38 30 C-35.953125 27.55078125 -35.953125 27.55078125 -33 25 C-30.89617538 23.08406497 -28.82332089 21.13632 -26.75 19.1875 C-26.20859375 18.70474609 -25.6671875 18.22199219 -25.109375 17.72460938 C-20.85617284 13.65748481 -20.42236268 10.80901722 -20 5 C-17.9375 3.5 -17.9375 3.5 -16 3 C-16 3.99 -16 4.98 -16 6 C-15.278125 6.12375 -14.55625 6.2475 -13.8125 6.375 C-11 7 -11 7 -8.5 8.0625 C-5.82226817 9.06664944 -3.83421974 9.16195541 -1 9 C-1 8.34 -1 7.68 -1 7 C-3.475 6.505 -3.475 6.505 -6 6 C-6 5.34 -6 4.68 -6 4 C-4.35232753 4.28109113 -2.70686855 4.57518526 -1.0625 4.875 C0.31228516 5.11863281 0.31228516 5.11863281 1.71484375 5.3671875 C2.46894531 5.57601562 3.22304688 5.78484375 4 6 C4.495 6.99 4.495 6.99 5 8 C2.03 8.99 -0.94 9.98 -4 11 C-4 15.95 -4 20.9 -4 26 C-0.04 24.35 3.92 22.7 8 21 C8.09087891 19.53626953 8.09087891 19.53626953 8.18359375 18.04296875 C8.26738281 16.77066406 8.35117188 15.49835937 8.4375 14.1875 C8.51871094 12.92292969 8.59992188 11.65835938 8.68359375 10.35546875 C9 7 9 7 10 4 C6.7 3.01 3.4 2.02 0 1 C0 0.67 0 0.34 0 0 Z " fill="#010100" transform="translate(57,36)"/>
<path d="M0 0 C1.32 0.66 2.64 1.32 4 2 C3.525625 2.33 3.05125 2.66 2.5625 3 C0.64342605 5.05811199 0.64342605 5.05811199 0.8359375 8.65625 C0.23771113 14.15272654 -3.02707426 16.88799128 -6.9375 20.5 C-7.90719727 21.44746094 -7.90719727 21.44746094 -8.89648438 22.4140625 C-13.67598417 27 -13.67598417 27 -16 27 C-16.33 29.64 -16.66 32.28 -17 35 C-11.39 35 -5.78 35 0 35 C-0.33 36.65 -0.66 38.3 -1 40 C-1.67579102 39.98952637 -2.35158203 39.97905273 -3.04785156 39.96826172 C-6.11519642 39.92664024 -9.18248178 39.90065427 -12.25 39.875 C-13.31347656 39.85824219 -14.37695312 39.84148437 -15.47265625 39.82421875 C-16.49746094 39.81777344 -17.52226562 39.81132813 -18.578125 39.8046875 C-19.52075195 39.79421387 -20.46337891 39.78374023 -21.43457031 39.77294922 C-24.12757455 40.01129086 -25.64599196 40.74216633 -28 42 C-28.99 42 -29.98 42 -31 42 C-29.49603015 27.70322633 -21.42228348 18.08148574 -11 9 C-8.91407135 7.31726203 -6.82598856 5.70568243 -4.62109375 4.18359375 C-2.90096453 2.92769218 -1.46788187 1.53926822 0 0 Z " fill="#1F1F34" transform="translate(37,36)"/>
<path d="M0 0 C9.57 0 19.14 0 29 0 C29 7.49414623 28.90328386 10.50898537 25.5625 16.5 C25.20994141 17.16708984 24.85738281 17.83417969 24.49414062 18.52148438 C23.74116004 19.94172972 22.9800347 21.35768249 22.21142578 22.76953125 C20.94200698 25.10677634 19.70072256 27.45736156 18.46484375 29.8125 C16.32647266 33.88399207 14.168343 37.9443955 12 42 C9.36 42 6.72 42 4 42 C4.63920943 39.99105606 5.31039038 37.99220557 6 36 C6.3403125 34.9171875 6.3403125 34.9171875 6.6875 33.8125 C8.80152358 30.89313411 11.66270634 30.23603469 15 29 C15.01417969 28.24976562 15.02835938 27.49953125 15.04296875 26.7265625 C15.40033063 19.05776974 17.05749923 13.57568395 21 7 C19.73542969 7.01160156 18.47085938 7.02320313 17.16796875 7.03515625 C15.50781398 7.04453566 13.84765761 7.0536357 12.1875 7.0625 C11.35412109 7.07087891 10.52074219 7.07925781 9.66210938 7.08789062 C8.45844727 7.09272461 8.45844727 7.09272461 7.23046875 7.09765625 C6.12288208 7.10551147 6.12288208 7.10551147 4.99291992 7.11352539 C3 7 3 7 0 6 C0 4.02 0 2.04 0 0 Z " fill="#8F90AB" transform="translate(51,29)"/>
<path d="M0 0 C0.10867302 1.58179615 0.18589827 3.16577153 0.25 4.75 C0.29640625 5.63171875 0.3428125 6.5134375 0.390625 7.421875 C0 10 0 10 -4 14 C1.61 14.33 7.22 14.66 13 15 C13 16.98 13 18.96 13 21 C12 22 12 22 9.22436523 22.11352539 C8.01466064 22.10828857 6.80495605 22.10305176 5.55859375 22.09765625 C4.25341797 22.09443359 2.94824219 22.09121094 1.60351562 22.08789062 C0.2148431 22.07953401 -1.17382877 22.07106905 -2.5625 22.0625 C-3.95507656 22.05748666 -5.34765481 22.05292347 -6.74023438 22.04882812 C-10.1601987 22.03699434 -13.58007844 22.0205088 -17 22 C-17.62792969 19.65112305 -17.62792969 19.65112305 -18 17 C-15.953125 14.58203125 -15.953125 14.58203125 -13 12 C-11.96560196 10.97056866 -10.93977463 9.93246658 -9.921875 8.88671875 C-8.86460589 7.82029013 -7.80731401 6.7538841 -6.75 5.6875 C-6.20859375 5.13771484 -5.6671875 4.58792969 -5.109375 4.02148438 C-1.11286879 0 -1.11286879 0 0 0 Z " fill="#767789" transform="translate(37,49)"/>
<path d="M0 0 C2.8224565 0.98683715 3.83011883 1.83011883 6 4 C6.875 6.25 6.875 6.25 7 8 C3.75 9.1875 3.75 9.1875 0 10 C-1.35335895 9.02727325 -2.68662604 8.0260734 -4 7 C-7.58905085 6.83414809 -7.58905085 6.83414809 -11 8 C-11.495 8.845625 -11.99 9.69125 -12.5 10.5625 C-12.995 11.366875 -13.49 12.17125 -14 13 C-17.6875 13.3125 -17.6875 13.3125 -21 13 C-20.74385063 8.64546078 -20.42722153 6.50390232 -17.5625 3.125 C-12.30783536 -1.23252677 -6.59718032 -0.58445894 0 0 Z " fill="#8F8FB2" transform="translate(41,29)"/>
<path d="M0 0 C0.66 0 1.32 0 2 0 C2.48828125 5.859375 2.48828125 5.859375 2 8 C-1.6120815 11.74108441 -5.03722398 12.8074448 -10.0625 13.8125 C-11.27035156 14.06644531 -12.47820312 14.32039063 -13.72265625 14.58203125 C-16.63280151 14.95317016 -18.29206444 14.99268461 -21 14 C-21.45375 14.61875 -21.9075 15.2375 -22.375 15.875 C-24 18 -24 18 -26 20 C-28.475 19.01 -28.475 19.01 -31 18 C-31.33 18.66 -31.66 19.32 -32 20 C-32 19.01 -32 18.02 -32 17 C-31.071875 16.566875 -30.14375 16.13375 -29.1875 15.6875 C-26.08457247 14.25750087 -26.08457247 14.25750087 -24.4375 12.375 C-22.47451407 10.49736128 -20.63365854 10.51388459 -18 10 C-17.41347656 9.55011719 -16.82695313 9.10023437 -16.22265625 8.63671875 C-13.57388928 6.68622076 -10.91687955 5.55690527 -7.875 4.3125 C-6.82054688 3.87550781 -5.76609375 3.43851563 -4.6796875 2.98828125 C-2 2 -2 2 0 2 C0 1.34 0 0.68 0 0 Z " fill="#363C56" transform="translate(93,58)"/>
<path d="M0 0 C5.94 2.475 5.94 2.475 12 5 C12 9.95 12 14.9 12 20 C3.375 17.25 3.375 17.25 0 15 C-0.22137393 12.37302936 -0.28162025 9.99106036 -0.1875 7.375 C-0.17396484 6.66859375 -0.16042969 5.9621875 -0.14648438 5.234375 C-0.1111104 3.48925872 -0.05730221 1.74453392 0 0 Z " fill="#ECB25E" transform="translate(39,42)"/>
<path d="M0 0 C-0.33 0.99 -0.66 1.98 -1 3 C-4.24535964 4.41537711 -6.38620368 3.80569832 -9.625 2.625 C-10.40101562 2.34914063 -11.17703125 2.07328125 -11.9765625 1.7890625 C-14 1 -14 1 -16 0 C-16 0.66 -16 1.32 -16 2 C-14.35 2.33 -12.7 2.66 -11 3 C-11 3.66 -11 4.32 -11 5 C-15.15226856 6.18956883 -17.38725993 5.78960563 -21.3125 4.0625 C-22.19550781 3.68222656 -23.07851563 3.30195312 -23.98828125 2.91015625 C-24.65214844 2.60980469 -25.31601562 2.30945312 -26 2 C-25.7265625 0.11328125 -25.7265625 0.11328125 -25 -2 C-16.73390994 -7.58465109 -8.20846023 -3.55094356 0 0 Z " fill="#040301" transform="translate(67,40)"/>
<path d="M0 0 C0 1.32 0 2.64 0 4 C5.61 4 11.22 4 17 4 C16.67 5.65 16.34 7.3 16 9 C15.32420898 8.98952637 14.64841797 8.97905273 13.95214844 8.96826172 C10.88480358 8.92664024 7.81751822 8.90065427 4.75 8.875 C3.68652344 8.85824219 2.62304688 8.84148437 1.52734375 8.82421875 C0.50253906 8.81777344 -0.52226562 8.81132813 -1.578125 8.8046875 C-2.52075195 8.79421387 -3.46337891 8.78374023 -4.43457031 8.77294922 C-7.12757455 9.01129086 -8.64599196 9.74216633 -11 11 C-11.99 11 -12.98 11 -14 11 C-13.67 8.69 -13.34 6.38 -13 4 C-12.67 5.32 -12.34 6.64 -12 8 C-11.278125 7.236875 -10.55625 6.47375 -9.8125 5.6875 C-3.86046512 0 -3.86046512 0 0 0 Z " fill="#141628" transform="translate(20,67)"/>
<path d="M0 0 C-0.59559106 4.86872054 -2.72477415 8.59328841 -5.0625 12.8125 C-5.62807617 13.85180664 -5.62807617 13.85180664 -6.20507812 14.91210938 C-7.13083852 16.61128985 -8.06462312 18.30609425 -9 20 C-11.64 20 -14.28 20 -17 20 C-16.36079057 17.99105606 -15.68960962 15.99220557 -15 14 C-14.773125 13.278125 -14.54625 12.55625 -14.3125 11.8125 C-13 10 -13 10 -9.4375 8.625 C-8.303125 8.08875 -7.16875 7.5525 -6 7 C-4.94250443 3.91630113 -4.94250443 3.91630113 -5 1 C-2 0 -2 0 0 0 Z " fill="#818294" transform="translate(72,51)"/>
<path d="M0 0 C0.33 0 0.66 0 1 0 C0.68616408 7.06130818 -0.44413134 11.68068054 -5.8203125 16.69921875 C-7.51816009 18.17366534 -9.23750262 19.60386443 -11 21 C-11.66 20.67 -12.32 20.34 -13 20 C-13 19.34 -13 18.68 -13 18 C-14.98 17.67 -16.96 17.34 -19 17 C-18.34 16.34 -17.68 15.68 -17 15 C-18.32 14.34 -19.64 13.68 -21 13 C-19.02 13 -17.04 13 -15 13 C-15 13.66 -15 14.32 -15 15 C-14.01 14.67 -13.02 14.34 -12 14 C-12.33 13.34 -12.66 12.68 -13 12 C-12.195625 11.87625 -12.195625 11.87625 -11.375 11.75 C-7.48559548 10.52176699 -4.04631627 8.81257763 -1.94921875 5.1796875 C-1.22460081 3.48318863 -0.60344404 1.74328279 0 0 Z " fill="#526181" transform="translate(94,72)"/>
<path d="M0 0 C0.61369701 8.93270086 0.61369701 8.93270086 -1.4375 12.5 C-5.11995302 14.65558226 -8.8379605 15.25991903 -13 16 C-14.33598121 16.32255711 -15.67029787 16.65246421 -17 17 C-15.88559348 13.65678045 -15.02527657 12.93980381 -12.375 10.75 C-8.83631126 7.75964861 -5.56337155 4.61807302 -2.34765625 1.28515625 C-1 0 -1 0 0 0 Z " fill="#9697B2" transform="translate(37,49)"/>
<path d="M0 0 C0 2.31 0 4.62 0 7 C-1.03060547 7.29003906 -1.03060547 7.29003906 -2.08203125 7.5859375 C-2.98308594 7.84632812 -3.88414063 8.10671875 -4.8125 8.375 C-5.70582031 8.63023438 -6.59914063 8.88546875 -7.51953125 9.1484375 C-10.20467896 9.95266661 -10.20467896 9.95266661 -13 12 C-15.1875 11.625 -15.1875 11.625 -17 11 C-5.10393258 0 -5.10393258 0 0 0 Z " fill="#212539" transform="translate(95,51)"/>
<path d="M0 0 C2 3 2 3 1.75 5.19921875 C-1.13913111 14.78451309 -6.17859304 20.89097208 -14 27 C-13.27250926 22.47339093 -10.66156583 20.21869202 -7.59375 17 C-5.95345747 14.94159369 -5.41291936 13.56927601 -5 11 C-4.34 11 -3.68 11 -3 11 C-3 9.35 -3 7.7 -3 6 C-2.34 6 -1.68 6 -1 6 C-1.33 5.01 -1.66 4.02 -2 3 C-1.34 2.01 -0.68 1.02 0 0 Z " fill="#575883" transform="translate(93,19)"/>
<path d="M0 0 C2.64 0.33 5.28 0.66 8 1 C8 1.99 8 2.98 8 4 C9.65 4.33 11.3 4.66 13 5 C13 5.33 13 5.66 13 6 C7.06 6 1.12 6 -5 6 C-4.34 5.01 -3.68 4.02 -3 3 C-2.34 3 -1.68 3 -1 3 C-0.67 2.01 -0.34 1.02 0 0 Z " fill="#161525" transform="translate(37,58)"/>
<path d="M0 0 C-0.0625 1.75 -0.0625 1.75 -1 4 C-5.33237013 6.97319519 -8.7024666 8.48316747 -14 9 C-14.33 8.34 -14.66 7.68 -15 7 C-14.34 7 -13.68 7 -13 7 C-13 6.34 -13 5.68 -13 5 C-11.39967863 4.15930585 -9.79458829 3.32768495 -8.1875 2.5 C-6.84751953 1.80390625 -6.84751953 1.80390625 -5.48046875 1.09375 C-3 0 -3 0 0 0 Z " fill="#4B5574" transform="translate(95,63)"/>
<path d="M0 0 C4.95 0 9.9 0 15 0 C12.75 6.75 12.75 6.75 10 10 C10 8.02 10 6.04 10 4 C6.7 3.01 3.4 2.02 0 1 C0 0.67 0 0.34 0 0 Z " fill="#28273F" transform="translate(57,36)"/>
<path d="M0 0 C0 0.66 0 1.32 0 2 C-1.78953185 2.83790789 -3.58169695 3.67019396 -5.375 4.5 C-6.87160156 5.19609375 -6.87160156 5.19609375 -8.3984375 5.90625 C-11 7 -11 7 -13 7 C-13 7.66 -13 8.32 -13 9 C-13.66 9 -14.32 9 -15 9 C-15 9.66 -15 10.32 -15 11 C-16.32 11.33 -17.64 11.66 -19 12 C-19 9 -19 9 -17.4140625 6.984375 C-14.5419581 4.62348659 -11.86150645 3.52497527 -8.375 2.25 C-7.22773437 1.82203125 -6.08046875 1.3940625 -4.8984375 0.953125 C-2 0 -2 0 0 0 Z " fill="#404865" transform="translate(95,61)"/>
<path d="M0 0 C1.62566606 0.47690204 3.25051311 0.95659666 4.875 1.4375 C5.77992187 1.70433594 6.68484375 1.97117188 7.6171875 2.24609375 C10 3 10 3 12 4 C12 4.66 12 5.32 12 6 C7.84773144 7.18956883 5.61274007 6.78960563 1.6875 5.0625 C0.80449219 4.68222656 -0.07851563 4.30195312 -0.98828125 3.91015625 C-1.65214844 3.60980469 -2.31601562 3.30945312 -3 3 C-2.01 2.01 -1.02 1.02 0 0 Z " fill="#FFC166" transform="translate(44,39)"/>
<path d="M0 0 C0.99386719 0.38027344 1.98773438 0.76054688 3.01171875 1.15234375 C3.77097656 1.45269531 4.53023437 1.75304688 5.3125 2.0625 C5.3125 2.7225 5.3125 3.3825 5.3125 4.0625 C1.16023144 5.25206883 -1.07475993 4.85210563 -5 3.125 C-5.88300781 2.74472656 -6.76601563 2.36445312 -7.67578125 1.97265625 C-8.33964844 1.67230469 -9.00351562 1.37195312 -9.6875 1.0625 C-7.41362451 -3.48525098 -3.80689778 -1.47797208 0 0 Z " fill="#FFC166" transform="translate(57.6875,37.9375)"/>
<path d="M0 0 C2.31 0.33 4.62 0.66 7 1 C6.67 1.99 6.34 2.98 6 4 C4.37828761 4.38897161 2.75245075 4.76078298 1.125 5.125 C0.22007813 5.33382812 -0.68484375 5.54265625 -1.6171875 5.7578125 C-2.40351562 5.83773437 -3.18984375 5.91765625 -4 6 C-4.66 5.34 -5.32 4.68 -6 4 C-5.34 3.67 -4.68 3.34 -4 3 C-5.32 2.34 -6.64 1.68 -8 1 C-6.02 1 -4.04 1 -2 1 C-2 1.66 -2 2.32 -2 3 C-1.01 2.67 -0.02 2.34 1 2 C0.67 1.34 0.34 0.68 0 0 Z " fill="#3E4B6A" transform="translate(81,84)"/>
<path d="M0 0 C0.99 0.33 1.98 0.66 3 1 C-0.75 6.75 -0.75 6.75 -3 9 C-5.475 8.01 -5.475 8.01 -8 7 C-8.33 7.66 -8.66 8.32 -9 9 C-9 8.01 -9 7.02 -9 6 C-8.071875 5.566875 -7.14375 5.13375 -6.1875 4.6875 C-3.52815927 3.27961373 -1.91894095 2.23876444 0 0 Z " fill="#6F7284" transform="translate(70,69)"/>
<path d="M0 0 C1.2065625 0.0309375 1.2065625 0.0309375 2.4375 0.0625 C0.95952738 3.73306937 -1.03865477 5.47335783 -4.1875 7.8125 C-5.00476563 8.42609375 -5.82203125 9.0396875 -6.6640625 9.671875 C-7.29054688 10.13078125 -7.91703125 10.5896875 -8.5625 11.0625 C-8.8925 10.0725 -9.2225 9.0825 -9.5625 8.0625 C-8.5725 7.4025 -7.5825 6.7425 -6.5625 6.0625 C-5.5215934 4.42107037 -4.51745674 2.75537785 -3.5625 1.0625 C-2.5625 0.0625 -2.5625 0.0625 0 0 Z " fill="#35385A" transform="translate(18.5625,62.9375)"/>
<path d="M0 0 C1.9375 0.75 1.9375 0.75 4 2 C4.75 4.125 4.75 4.125 5 6 C2.69 6.66 0.38 7.32 -2 8 C-2.66 6.68 -3.32 5.36 -4 4 C-2.68 2.68 -1.36 1.36 0 0 Z " fill="#777588" transform="translate(43,31)"/>
<path d="M0 0 C0.33 0 0.66 0 1 0 C1.32728047 3.60008519 1.40422813 5.41611492 -0.6875 8.4375 C-3 10 -3 10 -5.75 9.75 C-6.4925 9.5025 -7.235 9.255 -8 9 C-7.04270084 7.87411986 -6.08412105 6.7493285 -5.125 5.625 C-4.59132813 4.99851562 -4.05765625 4.37203125 -3.5078125 3.7265625 C-2.38567993 2.44163349 -1.20628025 1.20628025 0 0 Z " fill="#8A8CAE" transform="translate(36,53)"/>
<path d="M0 0 C-0.18359375 1.890625 -0.18359375 1.890625 -1 4 C-3.28515625 5.046875 -3.28515625 5.046875 -6.0625 5.75 C-7.44115234 6.11351562 -7.44115234 6.11351562 -8.84765625 6.484375 C-9.55792969 6.65453125 -10.26820312 6.8246875 -11 7 C-4.36842105 0 -4.36842105 0 0 0 Z " fill="#111422" transform="translate(95,51)"/>
<path d="M0 0 C0 1.98 0 3.96 0 6 C-1.65 6.66 -3.3 7.32 -5 8 C-5.1875 5.125 -5.1875 5.125 -5 2 C-2 0 -2 0 0 0 Z " fill="#30281B" transform="translate(60,46)"/>
<path d="M0 0 C0.66 0 1.32 0 2 0 C1.54636829 1.58468677 1.08688548 3.16769924 0.625 4.75 C0.36976562 5.63171875 0.11453125 6.5134375 -0.1484375 7.421875 C-1 10 -1 10 -3 14 C-3 10.7 -3 7.4 -3 4 C-2.34 4 -1.68 4 -1 4 C-0.67 2.68 -0.34 1.36 0 0 Z " fill="#373B5F" transform="translate(8,64)"/>
<path d="M0 0 C0 3 0 3 -1.75 4.82421875 C-2.4925 5.43910156 -3.235 6.05398437 -4 6.6875 C-4.7425 7.31011719 -5.485 7.93273437 -6.25 8.57421875 C-6.8275 9.04472656 -7.405 9.51523438 -8 10 C-8.66 9.67 -9.32 9.34 -10 9 C-10 8.01 -10 7.02 -10 6 C-8.906875 5.566875 -7.81375 5.13375 -6.6875 4.6875 C-3.90591207 3.50504359 -1.93638061 2.39199957 0 0 Z " fill="#485778" transform="translate(91,83)"/>
<path d="M0 0 C0 0.99 0 1.98 0 3 C-5.17578125 6.22265625 -5.17578125 6.22265625 -7 7 C-7.99 6.67 -8.98 6.34 -10 6 C-8.89932004 5.18278283 -7.79430269 4.37140549 -6.6875 3.5625 C-6.07261719 3.11003906 -5.45773438 2.65757813 -4.82421875 2.19140625 C-3 1 -3 1 0 0 Z " fill="#556283" transform="translate(94,64)"/>
<path d="M0 0 C0.66 0.66 1.32 1.32 2 2 C0.35 5.3 -1.3 8.6 -3 12 C-4.12668965 8.61993106 -3.89636912 8.0359269 -2.625 4.875 C-2.34914063 4.17117187 -2.07328125 3.46734375 -1.7890625 2.7421875 C-1 1 -1 1 0 0 Z " fill="#39385A" transform="translate(12,48)"/>
<path d="M0 0 C-0.33 1.65 -0.66 3.3 -1 5 C-2.32 5.33 -3.64 5.66 -5 6 C-5 4.35 -5 2.7 -5 1 C-2 0 -2 0 0 0 Z " fill="#757581" transform="translate(72,51)"/>
<path d="M0 0 C-2 2 -2 2 -4.4375 2.9375 C-6.97065221 3.9878314 -8.23145796 4.95221448 -10 7 C-10.66 6.67 -11.32 6.34 -12 6 C-6 -0.15789474 -6 -0.15789474 0 0 Z " fill="#A2A1B9" transform="translate(33,29)"/>
<path d="M0 0 C5.28 0 10.56 0 16 0 C16 0.33 16 0.66 16 1 C15.09636719 1.04898437 14.19273438 1.09796875 13.26171875 1.1484375 C12.08222656 1.22320313 10.90273438 1.29796875 9.6875 1.375 C7.92986328 1.47941406 7.92986328 1.47941406 6.13671875 1.5859375 C2.84300113 1.78613747 2.84300113 1.78613747 0 4 C0 2.68 0 1.36 0 0 Z " fill="#7F7F92" transform="translate(52,30)"/>
<path d="M0 0 C0.33 0.99 0.66 1.98 1 3 C-1.31 4.98 -3.62 6.96 -6 9 C-4.86634892 4.46539569 -3.35806626 3.09975347 0 0 Z " fill="#46476B" transform="translate(85,37)"/>
<path d="M0 0 C0.66 0 1.32 0 2 0 C2.8125 1.6875 2.8125 1.6875 3 4 C0.5625 6.75 0.5625 6.75 -2 9 C-1.34 6.03 -0.68 3.06 0 0 Z " fill="#50527A" transform="translate(88,30)"/>
<path d="M0 0 C0.33 0.99 0.66 1.98 1 3 C-1.97 5.475 -1.97 5.475 -5 8 C-5.66 7.67 -6.32 7.34 -7 7 C-4.66666667 4.66666667 -2.33333333 2.33333333 0 0 Z " fill="#A1A4C1" transform="translate(27,58)"/>
<path d="M0 0 C0.33 0 0.66 0 1 0 C1.41176754 3.60296594 1.1535853 4.78402067 -1 7.8125 C-1.66 8.534375 -2.32 9.25625 -3 10 C-2.49287967 6.28111761 -1.88391785 3.26545761 0 0 Z " fill="#A6A8C4" transform="translate(70,40)"/>
<path d="M0 0 C0.66 0.33 1.32 0.66 2 1 C1.25 3.375 1.25 3.375 0 6 C-1.98 6.99 -1.98 6.99 -4 8 C-2.68 5.36 -1.36 2.72 0 0 Z " fill="#474671" transform="translate(49,20)"/>
</svg>
